Coordinates
nRows=15
nColumns=24

# SIMM Motion File Header:
name Coordinates
datacolumns 24
datarows 15
otherdata 1
range 1.12500000000000000000 1.13900000000000000000

Units are S.I. units (second, meters, Newtons, ...)
Angles are in degrees.

endheader
time	pelvis_tx	pelvis_ty	pelvis_tz	pelvis_tilt	pelvis_list	pelvis_rotation	hip_flexion_r	hip_adduction_r	hip_rotation_r	knee_angle_r	ankle_angle_r	subtalar_angle_r	mtp_angle_r	hip_flexion_l	hip_adduction_l	hip_rotation_l	knee_angle_l	ankle_angle_l	subtalar_angle_l	mtp_angle_l	lumbar_extension	lumbar_bending	lumbar_rotation
      1.12500000000000000000	      0.57888184901531026000	      1.03743334998105400000	      0.05379684733175059400	      4.90772944864030340000	     -2.83685813813481060000	     -1.39477890971073680000	    -13.72154355102227000000	      4.90285464047541630000	     -1.19477870358271780000	     -5.97069642377083820000	     10.58552399395801800000	     -0.07303555862971006200	      0.01685047197044038000	     19.56994986022604600000	     -5.65433004538723250000	     -9.61865509831722500000	    -17.43285137670606800000	     -1.21225931813840690000	      0.00528004695492127400	     -0.02066108926187278800	    -16.73592590454235600000	      3.66380104181361870000	      2.88678773004337910000
      1.12599999999999990000	      0.57880770050757646000	      1.03726550283191580000	      0.05379857844237624600	      4.90243995636140450000	     -2.86769544446175530000	     -1.41447504099502000000	    -13.80047492189618700000	      4.92700955808590630000	     -1.15684412899331620000	     -5.94248124579823140000	     10.61081012366559100000	     -0.07500041639449327200	      0.01764125097968500700	     19.55113122696878800000	     -5.66630693352328850000	     -9.60818374895731610000	    -17.10208704785344800000	     -1.22857831927093920000	      0.00526516632259389600	     -0.02050252717795111500	    -16.73603157133994300000	      3.68467873919526360000	      2.90378484311072340000
      1.12700000000000000000	      0.57873449099817220000	      1.03709686230144120000	      0.05379956067162464100	      4.89726856465133590000	     -2.89835348201849770000	     -1.43427734358812220000	    -13.87938016157284700000	      4.95082607039122810000	     -1.11881783676142920000	     -5.91469435685682930000	     10.63616095777548200000	     -0.07696177019403065100	      0.01844361538898389400	     19.53208996543237300000	     -5.67792030603133120000	     -9.59607955675756760000	    -16.77311030516791500000	     -1.24409168662881960000	      0.00524999239972261630	     -0.02034469160646452900	    -16.73625524671099300000	      3.70528748380693780000	      2.92070829730263260000
      1.12800000000000010000	      0.57866222715244309000	      1.03692745214711300000	      0.05379979540968953700	      4.89221818802527600000	     -2.92882577572132740000	     -1.45418410959018480000	    -13.95825874397009000000	      4.97429714928900870000	     -1.08070871254528080000	     -5.88734101573215620000	     10.66157613752704100000	     -0.07891859146713900400	      0.01925614138438712000	     19.51283520462192600000	     -5.68917354427684520000	     -9.58235387398722340000	    -16.44598126338831200000	     -1.25879329251292730000	      0.00523451878538000290	     -0.02018759438972308300	    -16.73659925661778300000	      3.72561932672716760000	      2.93755489872304800000
      1.12900000000000000000	      0.57859091601035162000	      1.03675729674941190000	      0.05379928418847924200	      4.88729156363786640000	     -2.95910588276905260000	     -1.47419360920379550000	    -14.03710983765795100000	      4.99741579805096060000	     -1.04252533622264230000	     -5.86042646418092070000	     10.68706072456119200000	     -0.08086786549985029700	      0.02006817343163424700	     19.49337640149028800000	     -5.70007009757674240000	     -9.56701926698490900000	    -16.12076020220016300000	     -1.27267778317146800000	      0.00521871937762752140	     -0.02003124398312869400	    -16.73706563505128700000	      3.74566635526722800000	      2.95432144909029270000
      1.12999999999999990000	      0.57852056454348011000	      1.03658642028530750000	      0.05379802872661721600	      4.88249126431248830000	     -2.98918744122788870000	     -1.49430407453419180000	    -14.11593236821489900000	      5.02017512015815810000	     -1.00427646331369400000	     -5.83395605828041130000	     10.71261484822808200000	     -0.08280861444544662700	      0.02087745556977575100	     19.47372326616923400000	     -5.71061352230778140000	     -9.55008948226532080000	    -15.79750756329631400000	     -1.28574058041192600000	      0.00520258691328928830	     -0.01987564922510598800	    -16.73765618571785300000	      3.76542075163539990000	      2.97100474474469940000
      1.13100000000000000000	      0.57845117956899439000	      1.03641484656476420000	      0.05379603092795083600	      4.87781969703250780000	     -3.01906417309424140000	     -1.51451370009646660000	    -14.19472503031720300000	      5.04256832518465270000	     -0.96597100646896616000	     -5.80793527336935970000	     10.73823392418806900000	     -0.08474172105423520600	      0.02168977089097983900	     19.45388574530667800000	     -5.72080747416494530000	     -9.53157942278654960000	    -15.47628392271804100000	     -1.29797788750689610000	      0.00518613296958850710	     -0.01972081995173239500	    -16.73837249047074100000	      3.78487479890077920000	      2.98760157869436190000
      1.13200000000000010000	      0.57838276802633148000	      1.03624259956816060000	      0.05379329284546473200	      4.87327909595089890000	     -3.04872986694994630000	     -1.53482065279410530000	    -14.27348624712702300000	      5.06458870405319940000	     -0.92761780850454112000	     -5.78236965321194510000	     10.76391330525129900000	     -0.08666806293829242000	      0.02251104226093905000	     19.43387405863340000000	     -5.73065567894174420000	     -9.51150513051910810000	    -15.15714994480216200000	     -1.30938669753488730000	      0.00516937132916102120	     -0.01956676527399047300	    -16.73921587517002900000	      3.80402086134024130000	      3.00410874633297500000
      1.13300000000000000000	      0.57831533727047135000	      1.03606970398202840000	      0.05378981665389968200	      4.86887151287169930000	     -3.07817835580170840000	     -1.55522308366597860000	    -14.35221412805700100000	      5.08622959775683190000	     -0.88922539257878497000	     -5.75726473353757660000	     10.78965323534789900000	     -0.08858676496423592600	      0.02333887158719619900	     19.41369873986253200000	     -5.74016189764883130000	     -9.48988377141033550000	    -14.84016633551432600000	     -1.31996480225256320000	      0.00515229850900430530	     -0.01941349135174736200	    -16.74018737085781800000	      3.82285135828911880000	      3.02052305159102200000
      1.13399999999999990000	      0.57824889499095955000	      1.03589618502372050000	      0.05378560464950782300	      4.86459881377709370000	     -3.10740351609980350000	     -1.57571913004739630000	    -14.43090648059884800000	      5.10748439864280090000	     -0.85080193165502715000	     -5.73262604036694600000	     10.81545936618977800000	     -0.09049503392288779600	      0.02416166296417747100	     19.39337062082771700000	     -5.74932991570486070000	     -9.46673360920267370000	    -14.52539381253686900000	     -1.32971079599709040000	      0.00513489164848303980	     -0.01926100136775739700	    -16.74128771995812700000	      3.84135876553416320000	      3.03684130945949390000
      1.13500000000000000000	      0.57818344874083794000	      1.03572206760647620000	      0.05378065927275903900	      4.86046269816743500000	     -3.13639932236594900000	     -1.59630689593423190000	    -14.50956088350772600000	      5.12834662927018490000	     -0.81235576017527733000	     -5.70845924710258410000	     10.84133200594383200000	     -0.09239203651806936200	      0.02497698361328008100	     19.37290074168784700000	     -5.75816359177132320000	     -9.44207395093485680000	    -14.21289309380702000000	     -1.33862406851302000000	      0.00511715028346588010	     -0.01910929956633116600	    -16.74251744992993800000	      3.85953568370262360000	      3.05306034374158130000
      1.13600000000000010000	      0.57811900584710363000	      1.03554737616537150000	      0.05377498310324319700	      4.85646469642372480000	     -3.16515984715233460000	     -1.61698445417939810000	    -14.58817469930093800000	      5.14880994646645450000	     -0.77389534037716012000	     -5.68477017696442650000	     10.86726655516049300000	     -0.09427874287386914200	      0.02579082085292779000	     19.35230033318107700000	     -5.76666684865838080000	     -9.41592512002990390000	    -13.90272486677774200000	     -1.34670480843081890000	      0.00509909430502211970	     -0.01895839187124991100	    -16.74387688114026000000	      3.87737484098875700000	      3.06917699011419480000
      1.13700000000000000000	      0.57805557370192284000	      1.03537213518996320000	      0.05376857882888961400	      4.85260616056752970000	     -3.19367923958785660000	     -1.63774985847962880000	    -14.66674503086762000000	      5.16886811150678230000	     -0.73542901104362801000	     -5.66156473661769870000	     10.89325847262887400000	     -0.09615613771505282500	      0.02660911362177463900	     19.33158085707381700000	     -5.77484363991861380000	     -9.38830844114750460000	    -13.59494974148844900000	     -1.35395401179082420000	      0.00508074467763375280	     -0.01880828401401284800	    -16.74536608857490100000	      3.89486906798375370000	      3.08518810296386810000
      1.13799999999999990000	      0.57799316005917867000	      1.03519636975063390000	      0.05376144921576904400	      4.84888825467236820000	     -3.22195170332678240000	     -1.65860115535290100000	    -14.74526867846770300000	      5.18851495882126200000	     -0.69696474768801242000	     -5.63884884024442810000	     10.91930812987859600000	     -0.09802346703422323800	      0.02742946761872100100	     19.31075404752029800000	     -5.78269791581359360000	     -9.35924622556168370000	    -13.28962820392125400000	     -1.36037349086296010000	      0.00506210420821889740	     -0.01865897923449360400	    -16.74698486274331400000	      3.91201127189932760000	      3.10109056197763260000
      1.13900000000000000000	      0.57793177294831988000	      1.03502010531990110000	      0.05375359710080551700	      4.84531195148394380000	     -3.24997149587891170000	     -1.67953638617263220000	    -14.82374215184605000000	      5.20774439827922550000	     -0.65851013767026789000	     -5.61662841155558730000	     10.94542126527634300000	     -0.09987805313626640900	      0.02824039309239386600	     19.28983189443485500000	     -5.79023361380268400000	     -9.32876174490478860000	    -12.98682058633208100000	     -1.36596587793549170000	      0.00504315580210592130	     -0.01851047828543221600	    -16.74873271651761500000	      3.92879443891174820000	      3.11688127485058300000
